<?xml version="1.0" standalone="no"?>
<!DOCTYPE svg PUBLIC "-//W3C//DTD SVG 20010904//EN"
 "http://www.w3.org/TR/2001/REC-SVG-20010904/DTD/svg10.dtd">
<svg version="1.0" xmlns="http://www.w3.org/2000/svg"
 width="152.000000pt" height="33.000000pt" viewBox="0 0 152.000000 33.000000"
 preserveAspectRatio="xMidYMid meet">

<g transform="translate(0.000000,33.000000) scale(0.100000,-0.100000)"
fill="#000000" stroke="none">
<path d="M123 239 c-15 -15 -5 -39 17 -39 22 0 32 24 17 39 -6 6 -14 11 -17
11 -3 0 -11 -5 -17 -11z"/>
<path d="M366 232 c-7 -12 -46 -133 -46 -144 0 -17 29 -7 35 12 9 27 51 27 58
0 5 -19 37 -29 37 -12 0 4 -11 39 -23 78 -22 65 -46 90 -61 66z m33 -79 c1 -7
-6 -13 -14 -13 -16 0 -19 17 -8 46 6 16 7 16 14 -2 4 -10 8 -25 8 -31z"/>
<path d="M600 211 c0 -11 -6 -22 -12 -25 -10 -5 -10 -7 0 -12 6 -3 12 -18 12
-34 0 -43 10 -60 35 -60 31 0 41 16 15 23 -28 7 -28 57 0 64 11 3 20 9 20 14
0 5 -9 9 -20 9 -13 0 -20 7 -20 20 0 11 -7 20 -15 20 -8 0 -15 -9 -15 -19z"/>
<path d="M472 136 c2 -37 7 -51 18 -51 10 0 16 12 18 33 2 19 11 38 23 45 29
18 23 24 -21 24 l-41 0 3 -51z"/>
<path d="M707 183 c-16 -15 -6 -44 18 -53 14 -5 25 -15 25 -21 0 -7 -10 -9
-25 -7 -17 4 -25 1 -25 -8 0 -9 12 -14 34 -14 59 0 76 52 21 66 -32 8 -33 24
0 24 14 0 25 5 25 10 0 11 -63 14 -73 3z"/>
<path d="M810 180 c0 -6 7 -27 16 -48 9 -23 13 -50 9 -69 -6 -34 5 -43 22 -21
11 14 53 123 53 138 0 24 -29 7 -35 -20 -9 -43 -22 -45 -29 -5 -4 21 -13 35
-21 35 -8 0 -15 -5 -15 -10z"/>
<path d="M930 182 c0 -5 7 -29 16 -55 11 -34 21 -47 35 -47 21 0 32 18 47 73
9 33 9 38 -5 35 -9 -2 -22 -21 -28 -43 l-12 -40 -12 43 c-7 25 -18 42 -26 42
-8 0 -15 -4 -15 -8z"/>
<path d="M1062 178 c-17 -17 -15 -63 4 -82 17 -17 69 -22 79 -7 3 5 -9 11 -27
13 -46 4 -49 28 -3 28 34 0 36 2 33 28 -3 23 -8 27 -38 30 -19 2 -41 -3 -48
-10z m58 -18 c0 -5 -9 -10 -21 -10 -11 0 -17 5 -14 10 3 6 13 10 21 10 8 0 14
-4 14 -10z"/>
<path d="M1180 134 c0 -41 4 -54 15 -54 10 0 15 10 15 29 0 29 22 61 41 61 5
0 9 4 9 9 0 4 -18 8 -40 8 l-40 0 0 -53z"/>
<path d="M1286 174 c-8 -21 0 -33 30 -44 32 -13 31 -34 -1 -28 -17 4 -25 1
-25 -8 0 -23 67 -18 80 5 11 22 -9 51 -36 51 -8 0 -14 5 -14 10 0 6 11 10 25
10 14 0 25 5 25 10 0 17 -77 12 -84 -6z"/>
<path d="M1412 178 c-7 -7 -12 -27 -12 -45 0 -36 21 -53 64 -53 34 0 33 18 -1
22 -42 5 -41 28 1 28 37 0 43 10 30 44 -7 19 -64 22 -82 4z m58 -18 c0 -5 -9
-10 -20 -10 -11 0 -20 5 -20 10 0 6 9 10 20 10 11 0 20 -4 20 -10z"/>
</g>
</svg>
